inDegrees=no
num_controls=7
num_derivatives=13
num_iterations=116
num_multipliers=7
num_parameters=0
num_slacks=7
num_states=26
objective=4.934475
objective_accelerations=0.543119
objective_balance=0.018177
objective_effort=0.151208
objective_height=4.195519
objective_ligament=0.026452
solver_duration=1308.690114
status=Solve_Succeeded
success=true
DataType=double
version=3
OpenSimVersion=4.4-2022-07-23-0e9fedc
endheader
time	/jointset/ground_pelvis/pelvis_tilt/value	/jointset/ground_pelvis/pelvis_tx/value	/jointset/ground_pelvis/pelvis_ty/value	/jointset/hip_l/hip_flexion_l/value	/jointset/hip_l/hip_adduction_l/value	/jointset/hip_l/hip_rotation_l/value	/jointset/back/lumbar_extension/value	/jointset/patellofemoral_l/patellar_flexion_l/value	/jointset/knee_l/knee_flexion_l/value	/jointset/knee_l/knee_adduction_l/value	/jointset/knee_l/knee_rotation_l/value	/jointset/ankle_l/ankle_angle_l/value	/jointset/subtalar_l/subtalar_angle_l/value	/jointset/ground_pelvis/pelvis_tilt/speed	/jointset/ground_pelvis/pelvis_tx/speed	/jointset/ground_pelvis/pelvis_ty/speed	/jointset/hip_l/hip_flexion_l/speed	/jointset/hip_l/hip_adduction_l/speed	/jointset/hip_l/hip_rotation_l/speed	/jointset/back/lumbar_extension/speed	/jointset/patellofemoral_l/patellar_flexion_l/speed	/jointset/knee_l/knee_flexion_l/speed	/jointset/knee_l/knee_adduction_l/speed	/jointset/knee_l/knee_rotation_l/speed	/jointset/ankle_l/ankle_angle_l/speed	/jointset/subtalar_l/subtalar_angle_l/speed	/forceset/tau_hip_flexion_l	/forceset/tau_hip_adduction_l	/forceset/tau_hip_rotation_l	/forceset/tau_knee_flexion_l	/forceset/tau_ankle_angle_l	/forceset/tau_subtalar_angle_l	/forceset/tau_lumbar_extension	lambda_cid13_p0	lambda_cid13_p1	lambda_cid13_p2	lambda_cid13_p3	lambda_cid13_p4	lambda_cid13_p5	lambda_cid14_p0	/jointset/ground_pelvis/pelvis_tilt/accel	/jointset/ground_pelvis/pelvis_tx/accel	/jointset/ground_pelvis/pelvis_ty/accel	/jointset/hip_l/hip_flexion_l/accel	/jointset/hip_l/hip_adduction_l/accel	/jointset/hip_l/hip_rotation_l/accel	/jointset/back/lumbar_extension/accel	/jointset/patellofemoral_l/patellar_flexion_l/accel	/jointset/knee_l/knee_flexion_l/accel	/jointset/knee_l/knee_adduction_l/accel	/jointset/knee_l/knee_rotation_l/accel	/jointset/ankle_l/ankle_angle_l/accel	/jointset/subtalar_l/subtalar_angle_l/accel	gamma_cid13_p0	gamma_cid13_p1	gamma_cid13_p2	gamma_cid13_p3	gamma_cid13_p4	gamma_cid13_p5	gamma_cid14_p0
1.5	-0.2986820244028227	0.0791600659324237	0.813372041729815	0.8635794141917914	-0.3729997378241948	-0.04639678331111299	-0.3147413246236809	0.7293179334090428	0.7293179334090114	-0.09179548052305822	-0.1623196532098649	0.2731071651997531	0.1347880816226888	0.366374083947789	0.2294886707755593	0.3845011061245184	-1.936340159186347	0.01789454067370673	-0.5610788434415289	0.6206380313436485	-1.964202623956566	-1.964202623956713	-0.2157540924538867	0.0940534327883001	-0.5469309924399709	-0.1789242919567952	-0.1162971258887173	0.03066955157048365	0.01671937399178226	-0.1226130702538479	-0.06102696401422434	0.005922455572577251	0.1156990343463375	-43.67064309491283	2.915533248772671	1.719994296403127	1.737606067446849	-434.9896755329906	-60.01179408963427	-13.85739944432332	0.3976679305413384	0.361776134183277	-0.6154529194722517	-1.002065130520752	0.3219076887880449	-0.2116081954041817	1.328133211880582	-1.037126797084244	-1.03712679708422	-0.1028152722968603	0.4699622315739058	-0.4516187298189511	0.4190836435266492	1.554632106931448e-07	3.537083102889809e-06	-2.436457432902206e-06	3.679720892600803e-07	6.51613410097284e-07	2.892918443696812e-06	5.353985420940926e-07
1.51	-0.2949983452334473	0.08147270712100822	0.8171855389368035	0.8441671949089125	-0.3728065465792431	-0.05201913339552504	-0.3084703637789102	0.7096258585776907	0.7096258585779233	-0.09396089008082306	-0.1613593082611213	0.2676152495817565	0.1330172825794144	0.3702975541238913	0.2329971880305907	0.378116022423263	-1.945817466137296	0.0207454348671746	-0.563306391505346	0.6334434310729093	-1.973933339693001	-1.97393333969294	-0.2173202065552079	0.09802665281022865	-0.5513725930615119	-0.1752140106176269	-0.1125889956312309	0.02912863840595521	0.01752401387045878	-0.1200475997234351	-0.06056821126060435	0.004598472229709395	0.1124968333704762	-43.48819665284022	3.380181332713815	1.735482285756016	1.953052214999304	-432.4985972570826	-59.62786967567186	-14.6218862229601	0.3800758782203989	0.3391231155214394	-0.6622519856700968	-0.877603288196928	0.2668892297126401	-0.2150505005638984	1.240137373391612	-0.8993059536822636	-0.8993059536513694	-0.181850554314226	0.3623210616609024	-0.4283631831434513	0.3498454165985436	1.437827571226145e-07	3.955121164233104e-06	-2.351072860470889e-06	4.235333477716523e-07	6.539713549220455e-07	3.078844320178634e-06	5.528892531930443e-07
1.52	-0.2912773534988575	0.08381918020101366	0.8209327421287392	0.8246687945944342	-0.3725848046032855	-0.05766110343829216	-0.3020746701328451	0.6898448241909058	0.689844824190856	-0.09614162899711816	-0.160358967276113	0.2620813314665734	0.1312841553570387	0.3738365969828773	0.2362550490597471	0.3712423031137965	-1.953576365520918	0.0236046868639661	-0.5650028351168193	0.6455845915998927	-1.981994535099788	-1.98199453509952	-0.2188199636669916	0.1020526397984399	-0.5553314918759195	-0.1713899277789691	-0.1088808653731705	0.02758772524188785	0.01832865374211405	-0.117482129192394	-0.06010945850676151	0.00327448888762572	0.1092946323950141	-43.30262746117218	3.837477871260004	1.759916420988865	2.138054335368099	-429.9862939723608	-59.3195705323614	-15.38627108543464	0.3207824671186063	0.3116448890081834	-0.7131800411144575	-0.6583836170551708	0.323579249453283	-0.1053873049353397	1.195285371425469	-0.7032227311549364	-0.7032227311549786	-0.08954387438924655	0.4805156248304458	-0.3550783683924553	0.4418439434245169	1.239824052689668e-07	4.281298480415064e-06	-2.210761451426981e-06	4.739437525872158e-07	6.225799610778904e-07	3.176759429982106e-06	5.589726670098396e-07
1.53	-0.2875229819607631	0.08619691355034527	0.8246088155409547	0.8051016205304814	-0.3723343363500314	-0.06331829613278522	-0.2955608895962927	0.6699917776886639	0.6699917776888963	-0.09833632515499599	-0.1593187118977884	0.2565103310131317	0.1295900215707996	0.3769721544797515	0.239242333036811	0.3638983826589731	-1.959563430016763	0.02648682212020412	-0.5663498781417716	0.6570481612889487	-1.988328031995496	-1.988328031995362	-0.2201122937356026	0.1060030322669884	-0.5587889761096211	-0.1674222245941963	-0.1052073687367972	0.02602509974690426	0.01908709920969894	-0.1149550981838314	-0.05973969018626322	0.00175450930386695	0.1061072640316088	-43.17411404145661	4.397942716115589	1.75869823990142	2.415925603723921	-427.6825037132759	-58.8479388490823	-16.14299880948927	0.300125409577049	0.2849855739788597	-0.7559936826832745	-0.5245955942945716	0.270029283082188	-0.1359541476070055	1.103389604968845	-0.5555131119640874	-0.5555131119844956	-0.1474270866419107	0.3527150626788633	-0.3289923078263636	0.3759235091649691	9.555466148950708e-08	4.509873754863108e-06	-2.012090278482198e-06	5.188813753507704e-07	5.55329894898012e-07	3.18116310018983e-06	5.529358274643438e-07
1.54	-0.2837392182439472	0.08860306282383096	0.8282092506216219	0.7854834302759723	-0.3720551470203003	-0.06898627752672824	-0.2889361739953686	0.6500839762291365	0.6500839762290881	-0.1005436145192814	-0.158238869792362	0.250907173945945	0.1279359028170497	0.3797150327206575	0.2419382338905622	0.3561146368039877	-1.963779603650526	0.02934890215116664	-0.5671605750198977	0.6677716044709381	-1.992945526618602	-1.992945526618602	-0.2213386043458687	0.1099699849279427	-0.5617628146220094	-0.1633869212829338	-0.1015338720994718	0.02446247425271811	0.01984554466936187	-0.112428067174345	-0.05936992186539794	0.0002345297213718813	0.1029198956688178	-43.0457549146576	4.95204216332052	1.765797802681159	2.67272106327419	-425.4121586218601	-58.45480398353063	-16.88678418896315	0.2422466159255999	0.2533682643455097	-0.801145121146845	-0.3042054446384823	0.3195682043987825	0.001881924429881561	1.047260070012535	-0.3600222766348273	-0.3600222766347932	-0.07633998272000776	0.4838276633114851	-0.2583492241300481	0.4553639687224642	6.832796383451606e-08	4.737493307392845e-06	-1.825368264957295e-06	5.598248368706706e-07	4.96910301121162e-07	3.184015678529e-06	5.476089179860004e-07
